<svg width="500" height="470" viewBox="0 0 500 470" xmlns="http://www.w3.org/2000/svg">
  <rect width="100%" height="100%" fill="#0d1117" rx="15" />
  <rect x="0" y="40" width="500" height="430" fill="#161b22" rx="10" />
  <circle cx="40" cy="80" r="28" fill="#21262d" stroke="#30363d" stroke-width="2" />
  <circle cx="110" cy="80" r="28" fill="#21262d" stroke="#30363d" stroke-width="2" />
  <circle cx="180" cy="80" r="28" fill="#21262d" stroke="#30363d" stroke-width="2" />
  <circle cx="250" cy="80" r="28" fill="#21262d" stroke="#30363d" stroke-width="2" />
  <circle cx="320" cy="80" r="28" fill="#21262d" stroke="#30363d" stroke-width="2" />
  <circle cx="390" cy="80" r="28" fill="#21262d" stroke="#30363d" stroke-width="2" />
  <circle cx="460" cy="80" r="28" fill="#21262d" stroke="#30363d" stroke-width="2" />
  <circle cx="40" cy="150" r="28" fill="#21262d" stroke="#30363d" stroke-width="2" />
  <circle cx="110" cy="150" r="28" fill="#21262d" stroke="#30363d" stroke-width="2" />
  <circle cx="180" cy="150" r="28" fill="#21262d" stroke="#30363d" stroke-width="2" />
  <circle cx="250" cy="150" r="28" fill="#21262d" stroke="#30363d" stroke-width="2" />
  <circle cx="320" cy="150" r="28" fill="#21262d" stroke="#30363d" stroke-width="2" />
  <circle cx="390" cy="150" r="28" fill="#21262d" stroke="#30363d" stroke-width="2" />
  <circle cx="460" cy="150" r="28" fill="#21262d" stroke="#30363d" stroke-width="2" />
  <circle cx="40" cy="220" r="28" fill="#21262d" stroke="#30363d" stroke-width="2" />
  <circle cx="110" cy="220" r="28" fill="#21262d" stroke="#30363d" stroke-width="2" />
  <circle cx="180" cy="220" r="28" fill="#21262d" stroke="#30363d" stroke-width="2" />
  <circle cx="250" cy="220" r="28" fill="#21262d" stroke="#30363d" stroke-width="2" />
  <circle cx="320" cy="220" r="28" fill="#21262d" stroke="#30363d" stroke-width="2" />
  <circle cx="390" cy="220" r="28" fill="#21262d" stroke="#30363d" stroke-width="2" />
  <circle cx="460" cy="220" r="28" fill="#21262d" stroke="#30363d" stroke-width="2" />
  <circle cx="40" cy="290" r="28" fill="#21262d" stroke="#30363d" stroke-width="2" />
  <circle cx="110" cy="290" r="28" fill="#21262d" stroke="#30363d" stroke-width="2" />
  <circle cx="180" cy="290" r="28" fill="#21262d" stroke="#30363d" stroke-width="2" />
  <circle cx="250" cy="290" r="28" fill="#21262d" stroke="#30363d" stroke-width="2" />
  <circle cx="320" cy="290" r="28" fill="#21262d" stroke="#30363d" stroke-width="2" />
  <circle cx="390" cy="290" r="28" fill="#21262d" stroke="#30363d" stroke-width="2" />
  <circle cx="460" cy="290" r="28" fill="#21262d" stroke="#30363d" stroke-width="2" />
  <circle cx="40" cy="360" r="28" fill="#21262d" stroke="#30363d" stroke-width="2" />
  <circle cx="110" cy="360" r="28" fill="#21262d" stroke="#30363d" stroke-width="2" />
  <circle cx="180" cy="360" r="28" fill="#21262d" stroke="#30363d" stroke-width="2" />
  <circle cx="250" cy="360" r="28" fill="#21262d" stroke="#30363d" stroke-width="2" />
  <circle cx="320" cy="360" r="28" fill="#21262d" stroke="#30363d" stroke-width="2" />
  <circle cx="390" cy="360" r="28" fill="#21262d" stroke="#30363d" stroke-width="2" />
  <circle cx="460" cy="360" r="28" fill="#21262d" stroke="#30363d" stroke-width="2" />
  <circle cx="40" cy="430" r="28" fill="#21262d" stroke="#30363d" stroke-width="2" />
  <circle cx="110" cy="430" r="28" fill="#58a6ff" stroke="#30363d" stroke-width="2" />
  <circle cx="180" cy="430" r="28" fill="#21262d" stroke="#30363d" stroke-width="2" />
  <circle cx="250" cy="430" r="28" fill="#21262d" stroke="#30363d" stroke-width="2" />
  <circle cx="320" cy="430" r="28" fill="#21262d" stroke="#30363d" stroke-width="2" />
  <circle cx="390" cy="430" r="28" fill="#21262d" stroke="#30363d" stroke-width="2" />
  <circle cx="460" cy="430" r="28" fill="#21262d" stroke="#30363d" stroke-width="2" />
  <text x="250" y="25" fill="#bc8cff" font-family="monospace" font-size="16" font-weight="bold" text-anchor="middle">Next Move: Player 2 (Purple)</text>
</svg>